<?xml version="1.0" encoding="utf-8"?>
<!-- Generator: Adobe Illustrator 27.5.0, SVG Export Plug-In . SVG Version: 6.00 Build 0)  -->
<svg version="1.1" id="Capa_1" xmlns="http://www.w3.org/2000/svg" xmlns:xlink="http://www.w3.org/1999/xlink" x="0px" y="0px"
	 viewBox="0 0 2122 2122" style="enable-background:new 0 0 2122 2122;" xml:space="preserve">
<g>
	<path style="fill:#FAB85A;" d="M1959.47,861.938c-16.479-23.085-44.065-35.461-71.251-43.552
		c-149.679-44.552-403.03-4.958-524.773-116.471c-51.457-47.133-80.646-115.582-105.496-176.083
		c-65.82-160.25-92.219-274.646-112.847-307.219c-1.621-2.56-45.724-59.79-84.443-55.518c-38.719-4.271-82.87,52.929-84.443,55.518
		c-41.226,67.884-70.434,173.395-123.259,310.74c-23.479,61.046-64.758,153.602-116.215,200.735
		C615,841.601,382.78,773.833,233.101,818.386c-27.186,8.092-54.772,20.467-71.251,43.552
		c-23.408,32.791-17.702,79.85,4.111,113.723c21.811,33.874,56.677,56.985,91.849,76.666
		c103.403,57.859,137.869,62.86,232.414,137.336c57.131,45.004,112.1,101.531,101.304,180.167
		c-16.849,122.725-85.298,257.971-140.04,367.455c-56.347,112.693-18.433,225.125,103.453,221.062
		c191.041-6.368,283.077-254.593,481.088-263.415c68.688-3.06,136.55,19.717,196.408,53.547
		c90.114,50.931,160.4,127.712,254.489,172.532c82.43,39.267,217.557,25.023,197.145-97.446
		c-31.695-190.17-72.666-253.759-122.309-366.164c-53.782-121.778-39.118-192.752,69.484-278.302
		c94.547-74.477,128.859-68.913,232.263-126.773c35.172-19.681,70.037-42.792,91.849-76.666
		C1977.172,941.788,1982.878,894.729,1959.47,861.938z"/>
	<path style="fill:#F59A33;" d="M1619.224,1585.122c1.995,40.964,4.048,81.917,2.631,122.986
		c-1.125,32.628-3.841,65.956-13.003,97.431c-6.99,24.014-18.587,48.782-40.168,62.931c-22.986,15.07-51.868,12.599-76.868,4.4
		c-19.672-6.452-38.229-16.17-55.828-26.973c-24.478-15.026-47.754-31.885-69.823-50.259
		c-41.698-34.716-78.784-74.833-121.917-107.84c-45.611-34.903-99.019-58.881-156.64-64.224
		c-132.659-12.302-241.834,85.789-333.499,167.758c-37.894,33.885-79.762,67.631-126.271,88.81
		c-22.037,10.035-46.379,17.591-70.868,15.748c-25.663-1.931-48.132-14.672-64.53-34.303
		c-30.194-36.147-20.587-86.737-6.071-127.441c17.072-47.871,43.395-91.559,67.999-135.782
		c13.642-24.519,26.511-49.562,39.108-74.628c16.097-32.027,30.862-65.021,39.484-99.932c8.567-34.689,11.152-72.79,1.413-107.551
		c-8.095-28.891-20.87-56.216-37.81-80.979c-62.289-91.05-170.363-138.167-270.213-175.396
		c-43.091-16.067-87.038-33.495-124.666-60.42c-22.739-16.27-43.283-37.2-52.014-62.703c3.146,13.788,8.717,27.146,16.289,38.904
		c21.811,33.873,56.677,56.985,91.849,76.666c103.403,57.859,137.87,62.86,232.414,137.336
		c57.131,45.004,112.1,101.531,101.304,180.167c-16.849,122.725-85.298,257.971-140.04,367.455
		c-56.347,112.693-18.434,225.124,103.453,221.062c191.041-6.368,283.077-254.593,481.088-263.415
		c68.688-3.061,136.55,19.717,196.408,53.547c90.115,50.931,160.401,127.711,254.49,172.532
		c82.43,39.267,217.556,25.023,197.146-97.446C1665.577,1712.593,1643.917,1644.74,1619.224,1585.122z"/>
	<path style="fill:#F59A33;" d="M157.26,869.622c0.35-0.714,0.868-1.383,1.631-1.938c0.679-0.492,1.378-0.955,2.061-1.441
		c0.649-0.666,1.288-1.34,1.885-2.052c0.151-0.18,0.298-0.363,0.448-0.544c0.286-0.405,0.581-0.804,0.859-1.216
		c1.309-1.937,3.443-2.732,5.583-2.185c7.435-4.88,15.083-9.425,22.997-13.509c96.665-49.89,209.198-31.672,313.044-24.432
		c53.497,3.729,106.987,4.602,159.78-6.128c43.636-8.87,85.455-25.603,121.629-51.793c67.086-48.57,106.463-124.363,132.734-201.046
		c13.971-40.781,24.761-82.577,34.711-124.494c9.71-40.905,19.423-81.876,28.081-123.016c8.298-39.422,16.322-80.057,35.144-116.075
		c6.854-13.115,15.317-24.845,25.252-34.821c-33.402,9.787-65.546,51.477-66.884,53.68
		c-41.226,67.884-70.433,173.395-123.259,310.74c-23.479,61.047-64.759,153.602-116.215,200.735
		C615,841.601,382.78,773.833,233.101,818.386c-27.186,8.092-54.772,20.467-71.251,43.552c-1.844,2.584-3.498,5.26-4.986,8.007
		C156.999,869.841,157.128,869.73,157.26,869.622z"/>
	<path style="fill:#F59A33;" d="M1959.47,861.938c-16.479-23.085-44.065-35.461-71.251-43.552
		c-149.679-44.552-403.03-4.958-524.773-116.471c-51.457-47.133-80.646-115.582-105.496-176.083
		c-35.393-86.171-59.377-159.051-77.206-213.112c-3.998,57.85-5.835,115.879,2.082,173.373
		c11.612,84.329,46.837,163.337,107.107,224.109c52.819,53.259,121.977,90.434,195.706,104.622
		c15.841,3.049,32.249,3.493,48.326,4.052c22.796,0.791,45.612,0.97,68.418,1.352c52.224,0.876,104.691,2.253,156.448,9.827
		c40.962,5.995,88.417,15.391,119.724,44.721c33.321,31.216,28.538,80.1,3.944,115.32c-17.312,24.794-41.234,44.401-65.932,61.467
		c-25.424,17.568-52.534,32.553-79.94,46.767c-54.54,28.286-112.525,54.133-155.335,99.618
		c-20.523,21.805-36.099,47.995-42.241,77.508c-1.892,9.094-2.81,18.252-2.951,27.406c10.928-42.933,41.597-81.58,95.146-123.761
		c94.547-74.478,128.859-68.912,232.263-126.773c35.172-19.681,70.037-42.793,91.849-76.666
		C1977.172,941.788,1982.878,894.729,1959.47,861.938z"/>
	<path style="fill:#FFE193;" d="M1788.863,910.895c-15.316-10.999-34.574-16.667-53.32-16.481
		c-45.17,0.448-90.323,6.992-135.532,3.991c-56.775-3.768-108.682,10.988-164.729-1.042
		c-53.347-11.451-99.927-41.745-140.702-77.091c-36.525-31.662-67.705-69.609-90.496-112.301
		c-19.288-36.129-32.972-75.978-40.253-116.298c-6.569-36.372-9.367-73.369-13.662-110.049
		c-4.617-39.423-2.663-101.78-15.018-139.642c-9.949-30.488-31.695-54.586-62.386-55.56c-0.058-0.002-0.068-0.07-0.117-0.098
		c-0.054,0.028-0.074,0.071-0.129,0.098c-27.637,13.285-45.384,37.347-54.593,66.167c-18.856,59.011-9.032,123.285-11.639,184.119
		c-2.803,65.408-10.592,131.717-39.84,191.203c-26.453,53.8-70.241,95.57-123.762,122.123
		c-77.69,38.543-167.11,47.128-252.648,49.464c-16.445,0.449-32.742,0.66-49.117-1.01c-15.484-1.58-30.899-3.811-46.319-5.905
		c-50.787-6.895-138.492-31.254-170.03,27.137c-9.804,18.15,0.663,34.591,14.881,46.452c19.403,16.187,44.129,26.341,67.563,35.093
		c22.668,8.466,45.864,15.366,69.108,22.046c63.465,18.237,127.848,43.732,180.873,83.806
		c27.101,20.482,51.102,45.141,68.585,74.411c18.44,30.872,28.708,65.78,31.682,101.528c2.153,25.88-3.171,50.612-11.417,75.063
		c-9.444,28.002-21.894,54.976-34.86,81.494c-29.182,59.681-62.399,117.438-88.945,178.395
		c-11.397,26.172-21.749,53.237-27.422,81.297c-4.093,20.248-11.56,56.446,6.807,71.993c6.059,5.128,13.781,7.874,21.514,9.663
		c11.839,2.739,24.317,3.451,36.118,0.552c18.335-4.504,33.54-17.256,46.253-31.214c25.326-27.807,48.438-57.857,77.152-82.437
		c42.612-36.478,84.091-74.25,126.465-111c17.552-15.223,35.242-30.324,53.593-44.581c12.607-9.795,25.58-19.874,39.921-27.041
		c9.784-4.889,20.668-7.456,31.278-9.859c14.232-3.223,28.796-5.277,43.389-5.749c25.38-0.82,50.867,3.417,74.488,12.779
		c46.97,18.618,84.243,54.359,117.307,91.533c35.011,39.363,66.488,81.997,104.4,118.723c17.281,16.74,36.177,32.063,57.079,44.087
		c16.127,9.276,38.008,26.742,57.916,23.914c39.926-5.679,52.51-64.063,44.802-92.776c-12.432-46.306-57.197-88.67-81.511-128.892
		c-34.198-56.574-73.861-115.933-79.565-183.634c-2.91-34.522,4.954-68.703,21.118-99.233c6.477-12.234,13.782-24.797,23.648-34.655
		c6.637-6.632,14.17-12.387,21.799-17.821c45.94-32.725,98.221-56.818,147.872-83.234c27.66-14.716,55.222-29.689,81.941-46.071
		c35.917-22.023,175.782-80.691,141.477-140.443C1804.576,924.668,1797.321,916.968,1788.863,910.895z"/>
	
		<ellipse transform="matrix(0.7071 -0.7071 0.7071 0.7071 -476.9055 1092.7102)" style="fill:#F6A033;" cx="1080.565" cy="1122.031" rx="89.803" ry="89.803"/>
	
		<ellipse transform="matrix(0.2567 -0.9665 0.9665 0.2567 -26.0122 1676.7072)" style="fill:#F6A033;" cx="1077.044" cy="855.264" rx="67.792" ry="67.792"/>
	
		<ellipse transform="matrix(0.7071 -0.7071 0.7071 0.7071 -120.3802 939.1978)" style="fill:#F6A033;" cx="1073.522" cy="614.911" rx="46.662" ry="46.662"/>
	
		<ellipse transform="matrix(0.7071 -0.7071 0.7071 0.7071 31.0946 882.2899)" style="fill:#F6A033;" cx="1080.565" cy="403.61" rx="46.662" ry="46.662"/>
	
		<ellipse transform="matrix(0.628 -0.7782 0.7782 0.628 -509.3772 1060.3805)" style="fill:#F6A033;" cx="854.464" cy="1062.996" rx="67.792" ry="67.792"/>
	
		<ellipse transform="matrix(0.9955 -0.0951 0.0951 0.9955 -92.4837 63.6673)" style="fill:#F6A033;" cx="621.865" cy="1002.331" rx="46.662" ry="46.662"/>
	
		<ellipse transform="matrix(0.9999 -0.0154 0.0154 0.9999 -14.4536 6.599)" style="fill:#F6A033;" cx="420.085" cy="939.227" rx="46.662" ry="46.662"/>
	<path style="fill:#F6A033;" d="M1270.276,1010.909c-36.087,9.979-57.251,47.322-47.272,83.408
		c9.979,36.086,47.322,57.251,83.408,47.272c36.086-9.979,57.251-47.321,47.272-83.408
		C1343.705,1022.095,1306.362,1000.93,1270.276,1010.909z"/>
	
		<ellipse transform="matrix(0.6222 -0.7829 0.7829 0.6222 -220.4406 1574.39)" style="fill:#F6A033;" cx="1520.943" cy="1015.585" rx="46.662" ry="46.662"/>
	<path style="fill:#F6A033;" d="M1710.287,907.506c-24.839,6.868-39.406,32.572-32.538,57.411
		c6.868,24.839,32.572,39.406,57.41,32.538c24.839-6.868,39.406-32.572,32.538-57.411
		C1760.829,915.206,1735.125,900.638,1710.287,907.506z"/>
	<path style="fill:#F6A033;" d="M982.765,1373.802c21.704-30.508,14.567-72.834-15.941-94.538
		c-30.508-21.704-72.834-14.567-94.538,15.941c-21.704,30.508-14.567,72.834,15.94,94.538
		C918.735,1411.447,961.061,1404.31,982.765,1373.802z"/>
	
		<ellipse transform="matrix(0.5801 -0.8146 0.8146 0.5801 -915.1278 1281.4707)" style="fill:#F6A033;" cx="785.325" cy="1528.311" rx="46.662" ry="46.662"/>
	
		<ellipse transform="matrix(0.6098 -0.7926 0.7926 0.6098 -1090.103 1195.0601)" style="fill:#F6A033;" cx="668.574" cy="1704.568" rx="46.662" ry="46.662"/>
	
		<ellipse transform="matrix(0.6334 -0.7738 0.7738 0.6334 -583.6101 1401.5642)" style="fill:#F6A033;" cx="1187.532" cy="1316.777" rx="67.792" ry="67.792"/>
	<path style="fill:#F6A033;" d="M1368.014,1481.267c-15.681-20.452-44.971-24.319-65.423-8.638
		c-20.451,15.68-24.318,44.971-8.638,65.422c15.681,20.451,44.971,24.318,65.422,8.638
		C1379.828,1531.009,1383.695,1501.718,1368.014,1481.267z"/>
	<path style="fill:#F6A033;" d="M1502.173,1644.665c-15.681-20.451-44.971-24.318-65.423-8.638
		c-20.451,15.681-24.318,44.972-8.637,65.423c15.68,20.451,44.971,24.318,65.422,8.638
		C1513.986,1694.406,1517.853,1665.116,1502.173,1644.665z"/>
	<g>
		<path style="fill:#F9B233;" d="M1252.642,921.296c0,11.402-9.243,20.645-20.645,20.645s-20.646-9.243-20.646-20.645
			c0-11.402,9.244-20.646,20.646-20.646S1252.642,909.894,1252.642,921.296z"/>
		<path style="fill:#F9B233;" d="M1439.98,935.382c0,13.728-11.128,24.856-24.856,24.856c-13.728,0-24.856-11.128-24.856-24.856
			c0-13.728,11.129-24.856,24.856-24.856C1428.851,910.526,1439.98,921.655,1439.98,935.382z"/>
		<path style="fill:#F9B233;" d="M1630.15,942.426c0,13.727-11.128,24.856-24.856,24.856c-13.728,0-24.856-11.129-24.856-24.856
			c0-13.728,11.128-24.856,24.856-24.856C1619.022,917.57,1630.15,928.698,1630.15,942.426z"/>
		<circle style="fill:#F9B233;" cx="1189.737" cy="1002.294" r="16.838"/>
		<circle style="fill:#F9B233;" cx="1271.647" cy="985.317" r="16.838"/>
		<path style="fill:#F9B233;" d="M1212.203,871.099c0,10.211-8.277,18.489-18.488,18.489s-18.489-8.278-18.489-18.489
			c0-10.211,8.278-18.489,18.489-18.489S1212.203,860.888,1212.203,871.099z"/>
		<path style="fill:#F9B233;" d="M1296.723,858.773c0,10.211-8.278,18.489-18.489,18.489c-10.211,0-18.488-8.278-18.488-18.489
			c0-10.211,8.277-18.488,18.488-18.488C1288.446,840.284,1296.723,848.562,1296.723,858.773z"/>
		<path style="fill:#F9B233;" d="M1169.781,942.91c0,7.78-6.307,14.087-14.087,14.087s-14.087-6.307-14.087-14.087
			s6.307-14.086,14.087-14.086S1169.781,935.13,1169.781,942.91z"/>
		<path style="fill:#F9B233;" d="M1314.17,930.584c0,7.78-6.307,14.087-14.087,14.087s-14.087-6.307-14.087-14.087
			c0-7.779,6.307-14.086,14.087-14.086S1314.17,922.805,1314.17,930.584z"/>
		<path style="fill:#F9B233;" d="M1349.386,884.803c0,7.78-6.307,14.086-14.087,14.086s-14.087-6.307-14.087-14.086
			s6.307-14.087,14.087-14.087S1349.386,877.023,1349.386,884.803z"/>
		<path style="fill:#F9B233;" d="M1353.998,977.643c0,7.085-5.744,12.829-12.829,12.829c-7.085,0-12.829-5.743-12.829-12.829
			s5.744-12.829,12.829-12.829C1348.254,964.814,1353.998,970.557,1353.998,977.643z"/>
		
			<ellipse transform="matrix(0.1602 -0.9871 0.9871 0.1602 324.8303 2259.6008)" style="fill:#F9B233;" cx="1490.337" cy="938.904" rx="12.829" ry="12.829"/>
		<path style="fill:#F9B233;" d="M1411.602,1030.467c0,7.086-5.744,12.829-12.829,12.829c-7.085,0-12.829-5.744-12.829-12.829
			c0-7.085,5.744-12.829,12.829-12.829C1405.858,1017.638,1411.602,1023.382,1411.602,1030.467z"/>
	</g>
</g>
</svg>
